<?xml version="1.0" encoding="utf-8"?>
<!-- Generator: Adobe Illustrator 26.0.3, SVG Export Plug-In . SVG Version: 6.00 Build 0)  -->
<svg version="1.1" id="Warstwa_1" xmlns="http://www.w3.org/2000/svg" xmlns:xlink="http://www.w3.org/1999/xlink" x="0px" y="0px"
	 viewBox="0 0 318.9 135.3" style="enable-background:new 0 0 318.9 135.3;" xml:space="preserve">
<style type="text/css">
	.st0{fill:url(#SVGID_1_);}
	.st1{fill:url(#SVGID_00000086680948935843395490000014071013617173303191_);}
	.st2{fill:#FFFFFF;}
</style>
<g id="Warstwa_2_00000079449435941582939120000013237240333332716712_">
	<g id="Layer_1">
		<path d="M318.3,103.9c-0.1-0.2-0.3-0.4-0.5-0.6l-11.2-11.2c-1.4-1.3-3.1-2.1-4.9-2.4c-3.7-0.7-8.5-1.4-13.9-1.9v-2.5l-3.4-3.3
			l8.1-2.2l-0.1-0.8c-0.4-6-3.1-11.6-7.5-15.8l-11.2-11.1c-1.3-1.3-2.8-2.4-4.4-3.4l0,0c-0.3-0.2-0.6-0.4-0.9-0.5l0,0l-0.9-0.5l0,0
			l-0.9-0.4h-0.1l-0.9-0.3l-0.1,0c-0.3-0.1-0.6-0.2-0.9-0.3l-0.2-0.1l-0.9-0.2l-0.2-0.1l-0.8-0.2H262c-0.3-0.1-0.5-0.1-0.8-0.2h-0.3
			l-0.8-0.1h-0.3l-0.9-0.1h-0.2h-1.1l0,0c-0.5,0-1,0-1.4,0h-0.5l-1,0.1l-0.5,0.1l-0.9,0.1l-0.5,0.1l-0.9,0.2l-0.5,0.1l-0.9,0.2
			l-0.5,0.1l-0.9,0.3l-0.4,0.2l-0.9,0.3l-0.4,0.2l-1,0.4l-0.3,0.1c-0.4,0.2-0.7,0.3-1.1,0.5l-0.1,0.1c-2.9,1.4-5.6,3.3-7.8,5.6l0,0
			l-3.2-3.1c5.2-4.9,10.2-9.7,15-14.8c5-5.3,9.3-9.8,9.3-14.8c0-1.8-0.5-3.5-1.4-5c-1-1.9-9.8-11.4-13.7-14.3
			c-4.8-3.6-16.3-2.4-25.6-0.3c-16.6,3.7-39.7,13.8-53,21.4c-14.4,8.2-23.2,15.9-24,21.1c0,0.2,0,0.4,0,0.6l0,0
			c-0.4,0.2-0.9,0.4-1.3,0.6l-0.3,0.2c-0.4,0.2-0.8,0.4-1.2,0.7l-0.3,0.2c-0.4,0.2-0.7,0.5-1.1,0.7l-0.3,0.2c-0.4,0.3-0.8,0.6-1.2,1
			l-0.4,0.3c-0.3,0.3-0.7,0.6-1,0.9l-0.3,0.2l0,0L129,46h-22.6v15.1l-9.1-9c-1.3-1.3-2.8-2.4-4.4-3.4l0,0c-0.3-0.2-0.6-0.4-0.9-0.5
			l0,0l-1-0.5l0,0l-1-0.4h-0.1L89,46.8l-0.1,0c-0.3-0.1-0.6-0.2-0.9-0.3l-0.2-0.1L87,46.1l-0.2-0.1L86,45.9h-0.2
			c-0.3-0.1-0.5-0.1-0.8-0.2h-0.3l-0.8-0.1h-0.3l-0.9-0.1h-0.2h-1.1l0,0c-0.5,0-1,0-1.4,0h-0.4l-1,0.1l-0.5,0.1l-0.9,0.1l-0.5,0.1
			L75.5,46L75,46.1l-0.9,0.2l-0.5,0.1l-0.9,0.3l-0.4,0.1c-0.3,0.1-0.7,0.2-1,0.3L71,47.4l-1.1,0.5l-0.2,0.1c-2.6,1.2-5,2.7-7.1,4.6
			l0,0l-1,1l0,0c-0.3,0.3-0.7,0.7-1,1l-8.5-8.6H30.4C12.8,45.9,0,56.6,0,71.3l0,0c-0.1,6.1,2.3,11.9,6.6,16.2l0,0
			c3.5,4,7.3,7.7,11.3,11.2c5.6,5.2,13.7,8.7,23.7,8.7h3.8v-9.4l4.6,4.5c2.5,2.4,5.5,4.3,8.7,5.5c1.5,0.5,3.2,0.8,4.8,0.8V90
			l8.6,8.5c1.1,1.1,2.3,2.1,3.5,3c6.2,4.4,14.5,6.9,23.5,6.9c3.9-0.1,7.8-0.4,11.6-1.1l0.8-0.1V101l6.3,6.3h8.1
			c-1.4,2.5-2.2,5.3-2.4,8.2c-0.1,1.6,0.3,3.1,1.2,4.4c0.3,0.4,12.1,12.2,12.1,12.2c2,2.1,5.3,3.2,9.8,3.2c4-0.1,8-0.7,11.9-1.7
			c9.7-2.4,19.5-5.6,28.9-8.6c8.7-2.8,16.9-5.4,23.9-7.1c27.6-6.6,48.1-10.1,77.3-9.8c7,0.1,14,0.6,20.9,1.5l1.9,0.2
			c3,0.3,6.7,0.8,7.6-3.3c0-0.2,0.1-0.5,0.1-0.7C319,105.2,318.7,104.5,318.3,103.9z M31.6,70L31.6,70c0.6-2,1.8-3.8,3.5-5.1
			l5.2,5.1H31.6z M165.1,62.2c-0.6-1.5-1.6-2.9-2.8-4c4-2.1,12.5-6.5,18.8-9.6C171.6,56.2,167.6,59.8,165.1,62.2L165.1,62.2z"/>
		
			<linearGradient id="SVGID_1_" gradientUnits="userSpaceOnUse" x1="1" y1="65.6254" x2="279.95" y2="65.6254" gradientTransform="matrix(1 0 0 -1 0 136.8504)">
			<stop  offset="0" style="stop-color:#5EADFC"/>
			<stop  offset="0.16" style="stop-color:#9DFCDC"/>
			<stop  offset="0.34" style="stop-color:#D2FF5F"/>
			<stop  offset="0.5" style="stop-color:#F0E63C"/>
			<stop  offset="0.68" style="stop-color:#F5D746"/>
			<stop  offset="0.84" style="stop-color:#E1A59A"/>
			<stop  offset="1" style="stop-color:#F962D6"/>
		</linearGradient>
		<path class="st0" d="M30.4,46.9h20.7v19.6h-3.4c-8,0-14.9-1.4-14.9-8.8c0-3.8,2.9-7.3,9.9-7.3v-1H29.3
			c-6.4,2.3-10.6,6.3-10.6,12.2c0,6.2,4.6,11.5,12.9,12.5v-3h19.5v25.3h-1.2c-7.3-1.9-13.3-7.1-16.2-14.1H33V95h-2.8
			C14,95,1,85.9,1,71.3C1,56.4,14.4,46.9,30.4,46.9z M81.2,46.4c-13.8,0.1-26.3,11-26.3,24.6c0,15.6,15.4,25.1,32.8,25.1
			c3.8-0.1,7.7-0.4,11.4-1.1l-0.1-19.8c-2.2,0.3-4.3,0.4-6.5,0.4c-3.2-0.1-6.3-0.5-9.4-1.2c-6.9-1.9-11.2-6.3-11.2-13.9
			c0-4.7,2.2-9.1,5-11.1c5.5,4.6,6,14.5,6.2,23.9l20.5-5.5C102.9,56.1,92.8,46.4,81.2,46.4z M141.4,48.1c-0.5-0.6-0.9-1.3-1-2
			c-3.8,1.6-7.7,5.2-11.2,10.3L128,56v-9h-20.6v48H128V60c0.8-0.6,1.8-0.9,2.8-1c1.9,0,3.1,1.8,3.1,5.3v30.6
			c6.4-8,13.2-15.5,20.6-22.6V60.6c0-6.5-1.8-10.8-4.5-13.2C145.6,49.5,143.1,50,141.4,48.1z M207.2,53.5v36.9
			c7.1-1.1,13.9-1.9,20.6-2.5V47h-13.1C212.2,49.1,209.7,51.3,207.2,53.5z M257.5,46.4c-13.9,0.1-26.3,11-26.3,24.6
			c0,6.2,2.6,12.1,7.2,16.2c6-0.3,11.8-0.5,17.4-0.7c6.4-0.2,13.2,0,19.6,0.3V75.2c-2.2,0.3-4.3,0.4-6.5,0.4
			c-3.2-0.1-6.3-0.5-9.4-1.2c-6.9-1.9-11.2-6.3-11.2-13.9c0-4.7,2.2-9.1,5-11.1c5.5,4.6,6,14.5,6.2,23.9l20.5-5.5
			C279.1,56.1,269.1,46.4,257.5,46.4z"/>
		
			<linearGradient id="SVGID_00000054245071782616429220000006660781761948217514_" gradientUnits="userSpaceOnUse" x1="124.4372" y1="74.8791" x2="306.5513" y2="74.8791" gradientTransform="matrix(1 0 0 -1 0 136.8504)">
			<stop  offset="0" style="stop-color:#F0E63C"/>
			<stop  offset="0.47" style="stop-color:#F5D746"/>
			<stop  offset="1" style="stop-color:#E1A59A"/>
		</linearGradient>
		<path style="fill:url(#SVGID_00000054245071782616429220000006660781761948217514_);" d="M199.6,105.7
			c27.7-6.6,48.3-10.1,77.5-9.8c7,0.1,14,0.6,21,1.5l1.9,0.2c3.5,0.4,5.9,0.4,6.5-2.5c0.2-0.7,0-1.4-0.4-2c-1.2-1.4-2.9-2.2-4.7-2.4
			c-15.1-2.5-30.4-3.6-45.6-3.2c-16.1,0.5-33.5,1.2-52.8,4.7c-18.8,3.4-37.4,8.3-55.4,14.7l-0.4,0.1l-1.9-2.8l0.3-0.3
			c12-10.3,23.2-19.5,33-27.6c23.4-19.4,41.9-34.7,58.1-51.8c7.9-8.4,12.1-13.4,6.2-20.8C239.1-1,225.4,1.2,217.6,3
			C201,6.7,178,16.7,164.8,24.3c-14,8-22.7,15.6-23.5,20.4c-0.2,1,0.1,2.1,0.8,2.8c1.9,2.1,5.6,0.1,13.8-4.2
			c4.8-2.6,11.4-6,20.1-9.9c24.9-11.1,44.1-17.8,44.2-17.8l0.4-0.1l1.9,2.6l-0.4,0.3c-44.4,33.4-52.8,41.2-57.2,45.4l-0.4,0.4
			c-30.3,28.3-44.1,47.9-39,55.3c2,2.8,7.3,5.5,21.3,2c9.7-2.4,19.4-5.5,28.9-8.6C184.4,110,192.6,107.4,199.6,105.7z"/>
		<polygon class="st2" points="140.1,30.8 140.1,30.8 140.1,30.8 		"/>
	</g>
</g>
</svg>
